HIERARCHY
ROOT Hips
{
	OFFSET 0.000000 0.000000 0.000000
	CHANNELS 6 Xposition Yposition Zposition Xrotation Yrotation Zrotation
	JOINT LeftUpLeg_virtual
	{
		OFFSET 0.000000 0.000000 0.000000
		CHANNELS 3 Xrotation Yrotation Zrotation
		JOINT LeftUpLeg
		{
			OFFSET 13.026900 -6.336304 -1.092800
			CHANNELS 3 Xrotation Yrotation Zrotation
			JOINT LeftLeg
			{
				OFFSET 0.524474 -46.096886 9.782700
				CHANNELS 3 Xrotation Yrotation Zrotation
				JOINT LeftFoot
				{
					OFFSET -0.524474 -53.427422 -12.948200
					CHANNELS 3 Xrotation Yrotation Zrotation
					JOINT LeftToeBase
					{
						OFFSET 0.192200 -14.009700 16.364100
						CHANNELS 3 Xrotation Yrotation Zrotation
						JOINT LeftToe_End
						{
							OFFSET -1.784700 -0.561700 9.474800
							CHANNELS 3 Xrotation Yrotation Zrotation
							End Site
							{
								OFFSET 0 0 0
							}
						}
					}
				}
			}
		}
	}
	JOINT RightUpLeg_virtual
	{
		OFFSET 0.000000 0.000000 0.000000
		CHANNELS 3 Xrotation Yrotation Zrotation
		JOINT RightUpLeg
		{
			OFFSET -12.883000 -6.336304 -1.092800
			CHANNELS 3 Xrotation Yrotation Zrotation
			JOINT RightLeg
			{
				OFFSET -0.524587 -46.096825 9.782800
				CHANNELS 3 Xrotation Yrotation Zrotation
				JOINT RightFoot
				{
					OFFSET 0.524587 -53.427383 -12.948300
					CHANNELS 3 Xrotation Yrotation Zrotation
					JOINT RightToeBase
					{
						OFFSET -0.192200 -14.009700 16.364100
						CHANNELS 3 Xrotation Yrotation Zrotation
						JOINT RightToe_End
						{
							OFFSET 1.784700 -0.561700 9.474800
							CHANNELS 3 Xrotation Yrotation Zrotation
							End Site
							{
								OFFSET 0 0 0
							}
						}
					}
				}
			}
		}
	}
	JOINT Spine_virtual
	{
		OFFSET 0.000000 0.000000 0.000000
		CHANNELS 3 Xrotation Yrotation Zrotation
		JOINT Spine
		{
			OFFSET 0.072000 7.257294 -0.789700
			CHANNELS 3 Xrotation Yrotation Zrotation
			JOINT Spine1
			{
				OFFSET 0.000000 12.508769 -0.658067
				CHANNELS 3 Xrotation Yrotation Zrotation
				JOINT Spine1_split
				{
					OFFSET 0.000000 12.508769 -0.658067
					CHANNELS 3 Xrotation Yrotation Zrotation
					JOINT Spine2
					{
						OFFSET 0.000000 12.508769 -0.658067
						CHANNELS 3 Xrotation Yrotation Zrotation
						JOINT Neck_virtual
						{
							OFFSET 0.000000 0.000000 0.000000
							CHANNELS 3 Xrotation Yrotation Zrotation
							JOINT Neck
							{
								OFFSET 0.000000 14.033295 7.520400
								CHANNELS 3 Xrotation Yrotation Zrotation
								JOINT Head
								{
									OFFSET 0.000000 8.198502 5.703100
									CHANNELS 3 Xrotation Yrotation Zrotation
									JOINT HeadTop_End
									{
										OFFSET 0.000000 17.760803 13.332701
										CHANNELS 3 Xrotation Yrotation Zrotation
										End Site
										{
											OFFSET 0 0 0
										}
									}
								}
							}
						}
						JOINT LeftShoulder_virtual
						{
							OFFSET 0.000000 0.000000 0.000000
							CHANNELS 3 Xrotation Yrotation Zrotation
							JOINT LeftShoulder
							{
								OFFSET 6.292450 5.785301 -0.669000
								CHANNELS 3 Xrotation Yrotation Zrotation
								JOINT LeftShoulder_split
								{
									OFFSET 6.292450 5.785301 -0.669000
									CHANNELS 3 Xrotation Yrotation Zrotation
									JOINT LeftArm
									{
										OFFSET 13.907140 -6.093903 1.965100
										CHANNELS 3 Xrotation Yrotation Zrotation
										JOINT LeftForeArm
										{
											OFFSET 34.140198 0.000000 0.000000
											CHANNELS 3 Xrotation Yrotation Zrotation
											JOINT LeftHand
											{
												OFFSET 40.960209 0.000000 0.000000
												CHANNELS 3 Xrotation Yrotation Zrotation
												End Site
												{
													OFFSET 0 0 0
												}
											}
										}
									}
								}
							}
						}
						JOINT RightShoulder_virtual
						{
							OFFSET 0.000000 0.000000 0.000000
							CHANNELS 3 Xrotation Yrotation Zrotation
							JOINT RightShoulder
							{
								OFFSET -6.292450 5.785301 -0.669000
								CHANNELS 3 Xrotation Yrotation Zrotation
								JOINT RightShoulder_split
								{
									OFFSET -6.292450 5.785301 -0.669000
									CHANNELS 3 Xrotation Yrotation Zrotation
									JOINT RightArm
									{
										OFFSET -13.907140 -6.093903 1.965100
										CHANNELS 3 Xrotation Yrotation Zrotation
										JOINT RightForeArm
										{
											OFFSET -34.140198 0.000000 0.000000
											CHANNELS 3 Xrotation Yrotation Zrotation
											JOINT RightHand
											{
												OFFSET -40.960209 0.000000 0.000000
												CHANNELS 3 Xrotation Yrotation Zrotation
												End Site
												{
													OFFSET 0 0 0
												}
											}
										}
									}
								}
							}
						}
					}
				}
			}
		}
	}
}
MOTION
Frames: 7
Frame Time: 0.03333333
5.730205 112.201904 4.951084 0.000000 0.000000 0.000000 -4.609334 7.107241 6.676147 -22.710767 -1.395741 1.144212 23.890207 8.051925 -0.611288 3.127002 8.639169 -4.309303 -3.738028 -0.310277 -1.440624 0.000000 0.000000 0.000000 -6.093893 11.748054 6.539261 12.090269 -12.567335 -7.001755 19.975460 -9.978430 -1.144167 -12.287404 -28.250639 22.425900 -4.038003 0.155156 0.156878 0.000000 0.000000 0.000000 -3.438944 6.326044 6.347110 5.078412 2.747846 12.817853 7.469854 6.023785 1.388533 0.680155 -0.348898 0.308403 0.000000 0.000000 0.000000 0.672443 5.588252 3.067109 -14.313926 -10.369446 -4.398550 5.025589 -12.034611 -4.708157 0.000000 0.000000 0.000000 0.547106 5.643516 2.026851 -0.524928 2.806172 19.236550 -0.864768 -0.461460 -2.635123 -37.018181 2.171731 -10.060230 -22.351039 -29.614454 8.222921 0.000000 0.000000 0.000000 -0.962911 5.223994 2.565229 5.890862 0.858416 -1.019079 -0.224592 2.649032 1.788189 37.991486 -48.380088 68.082725 -13.745107 31.456013 39.713097 0.000000 0.000000 0.000000 
5.158239 110.418915 4.967567 0.000000 0.000000 0.000000 -3.576052 18.178856 5.472602 -29.313789 -6.667743 -0.053399 25.331736 6.274783 -0.580591 5.584313 6.836092 -5.582238 -3.965607 0.198601 -1.528263 0.000000 0.000000 0.000000 -5.058646 22.226907 5.506555 16.146214 -18.888765 -3.886930 15.282856 -10.601030 -1.563485 -11.594214 -27.577271 24.382901 -4.240158 0.143078 0.587295 0.000000 0.000000 0.000000 -1.374116 16.296456 5.330254 2.406514 4.327075 11.620554 6.559656 7.337548 0.141141 0.729362 -0.326494 0.172438 0.000000 0.000000 0.000000 0.186269 6.859358 1.861797 -17.789673 -15.834067 -1.387422 7.681980 -17.880918 -2.888056 0.000000 0.000000 0.000000 -0.010968 7.001044 0.515290 -1.737917 9.085155 17.729008 -1.036712 -1.047187 -2.893040 -49.787595 5.748194 -13.799410 -27.153538 -29.743800 6.654696 0.000000 0.000000 0.000000 -1.017053 6.698413 1.208208 5.583016 0.981981 -0.999431 -1.120440 2.807822 2.502868 34.751835 -52.211182 71.138490 -13.999204 36.432178 38.878092 0.000000 0.000000 0.000000 
4.385451 108.819916 5.061668 0.000000 0.000000 0.000000 -1.689723 27.750886 4.175205 -36.583941 -11.260120 -2.240244 26.803624 5.094800 -0.659027 8.613622 5.411510 -5.909692 -3.639219 0.557017 -1.721898 0.000000 0.000000 0.000000 -3.041126 31.400210 4.374240 19.025004 -24.865027 -1.040191 11.532925 -10.937262 -1.777317 -11.000242 -26.558902 25.775339 -4.546673 0.187543 0.878114 0.000000 0.000000 0.000000 0.821784 24.949896 4.207163 -0.078403 5.984064 10.253646 5.891960 8.481375 -1.266136 0.594382 -0.478303 0.108980 0.000000 0.000000 0.000000 0.033096 8.007016 0.375614 -21.109854 -20.817735 1.886917 10.311837 -22.316033 -0.721080 0.000000 0.000000 0.000000 -0.246677 8.145357 -1.076431 -2.353951 13.222405 13.927514 -0.333761 -1.883674 -2.157253 -58.800088 7.006402 -19.280405 -31.537545 -28.480972 3.952330 0.000000 0.000000 0.000000 -0.771730 7.966534 -0.240203 5.349152 2.104295 0.410826 -2.008281 3.234147 2.911788 27.418717 -50.462076 69.134990 -10.566254 39.897543 34.358713 0.000000 0.000000 0.000000 
3.485265 107.494606 4.940365 0.000000 0.000000 0.000000 0.809276 35.638004 2.740985 -43.301145 -14.804331 -5.224445 27.279905 4.483079 -0.665876 11.696871 4.551548 -5.514445 -2.896861 0.753608 -1.849360 0.000000 0.000000 0.000000 -0.299605 38.882686 2.998920 21.005989 -30.045825 1.230294 8.831156 -11.031829 -1.878694 -10.886288 -25.511493 26.288937 -4.961249 0.242370 1.042460 0.000000 0.000000 0.000000 2.887399 32.425947 2.987913 -2.252218 7.565892 8.684364 5.585180 9.461549 -2.504236 0.522776 -0.886713 -0.012929 0.000000 0.000000 0.000000 0.236824 8.968452 -0.985496 -24.457442 -25.042651 4.594254 12.548290 -25.394088 1.426263 0.000000 0.000000 0.000000 -0.209677 9.116317 -2.323472 -2.438432 15.426141 8.312579 0.357979 -2.830111 -0.895602 -64.201565 7.544341 -25.287257 -35.352168 -26.640728 0.096661 0.000000 0.000000 0.000000 -0.205303 9.017622 -1.456591 5.100314 4.070582 2.768028 -2.955952 3.122364 3.048296 18.175857 -43.447530 63.158869 -4.189635 40.185090 26.953994 0.000000 0.000000 0.000000 
2.548527 106.356674 4.688068 0.000000 0.000000 0.000000 3.557199 41.871003 1.250074 -48.882342 -17.390198 -8.617349 26.625249 3.827708 -0.461852 14.680551 3.953303 -5.329860 -2.195971 0.808074 -1.885280 0.000000 0.000000 0.000000 2.687287 44.803333 1.442421 22.265390 -34.041151 2.811454 7.296105 -10.962775 -1.967700 -11.290777 -24.703013 25.752569 -5.480266 0.262553 1.119146 0.000000 0.000000 0.000000 4.934746 38.752605 1.581836 -3.996683 8.957320 6.973453 5.593360 10.253927 -3.350322 0.374307 -0.989930 -0.120819 0.000000 0.000000 0.000000 0.853131 9.743743 -1.949255 -27.862601 -28.207617 6.095556 14.293818 -27.303985 3.247637 0.000000 0.000000 0.000000 0.064061 9.933849 -3.031209 -2.158116 16.074529 1.685367 0.445125 -2.990615 0.314794 -65.914549 8.829041 -30.306301 -38.623081 -26.246052 -5.144528 0.000000 0.000000 0.000000 0.582580 9.793047 -2.259825 4.789713 6.534273 5.241388 -4.010609 2.218471 2.636735 9.488536 -33.257711 55.451318 2.241505 37.231197 19.507650 0.000000 0.000000 0.000000 
1.714878 105.278008 4.204453 0.000000 0.000000 0.000000 6.233012 46.823143 -0.279757 -53.269660 -19.249964 -11.984089 25.048841 2.993741 -0.009762 17.347641 3.297461 -5.576624 -2.229183 0.749701 -1.671067 0.000000 0.000000 0.000000 5.693577 49.375301 -0.317448 22.836463 -36.785937 3.690010 6.898917 -10.728390 -2.046322 -11.978284 -24.092560 24.413058 -5.824015 0.240607 1.135514 0.000000 0.000000 0.000000 6.919555 44.376589 -0.018871 -5.180669 10.097329 5.244295 5.801702 10.859786 -3.799620 0.491192 -1.067843 -0.282125 0.000000 0.000000 0.000000 1.796472 10.306035 -2.437454 -31.008454 -30.115404 6.249680 15.544797 -28.059025 4.424915 0.000000 0.000000 0.000000 0.393496 10.591883 -3.219203 -1.768129 16.065421 -5.046862 -0.330914 -2.355106 1.241636 -65.417154 12.421117 -33.547263 -41.260906 -28.157410 -11.560552 0.000000 0.000000 0.000000 1.432268 10.325233 -2.675972 4.486605 8.882735 7.021593 -5.261941 0.542270 2.225612 1.962041 -22.803275 47.370753 6.607210 32.559737 13.931087 0.000000 0.000000 0.000000 
1.001070 104.158241 3.668514 0.000000 0.000000 0.000000 8.843853 50.748900 -1.951933 -56.872677 -20.516005 -15.011354 23.371978 2.188193 0.539598 19.648608 2.550176 -6.142738 -2.405765 0.636605 -1.472311 0.000000 0.000000 0.000000 8.631969 53.045571 -2.296850 22.786928 -38.517923 4.029006 7.516733 -10.260512 -2.119600 -12.544450 -23.512431 22.985465 -5.886027 0.205375 1.057355 0.000000 0.000000 0.000000 8.994571 49.169955 -1.825965 -5.932888 10.949255 3.720357 5.984686 11.254419 -3.920146 0.764743 -0.734000 -0.340718 0.000000 0.000000 0.000000 2.852139 10.650197 -2.574829 -33.481731 -30.813490 5.465248 16.439476 -27.944630 4.909382 0.000000 0.000000 0.000000 0.719495 11.096651 -3.115749 -1.360365 16.189603 -11.137300 -1.927378 -1.341411 1.690584 -64.300876 18.161782 -35.495615 -43.547319 -32.588205 -18.902839 0.000000 0.000000 0.000000 2.203152 10.628051 -2.880844 4.273919 10.775053 7.661929 -6.586198 -1.102730 1.896828 -4.978887 -14.868321 39.635420 8.514608 28.620951 10.438815 0.000000 0.000000 0.000000 
